<svg width="41" height="41" viewBox="0 0 41 41" fill="none" xmlns="http://www.w3.org/2000/svg">
<path d="M20.1004 24.6998C22.42 24.6998 24.3004 22.8194 24.3004 20.4998C24.3004 18.1802 22.42 16.2998 20.1004 16.2998C17.7808 16.2998 15.9004 18.1802 15.9004 20.4998C15.9004 22.8194 17.7808 24.6998 20.1004 24.6998Z" fill="white"/>
<path d="M20.0996 0.5C9.05393 0.5 0.0996094 9.45432 0.0996094 20.5C0.0996094 31.5457 9.05393 40.5 20.0996 40.5C31.1453 40.5 40.0996 31.5457 40.0996 20.5C40.0996 9.45432 31.1453 0.5 20.0996 0.5ZM32.4562 25.5832C32.3602 27.4846 31.8259 29.3597 30.4402 30.7306C29.0411 32.1146 27.1572 32.6303 25.2374 32.7254H14.9618C13.0418 32.6303 11.1582 32.115 9.75905 30.7306C8.37329 29.3597 7.83905 27.4846 7.74305 25.5832V15.4168C7.83905 13.5154 8.37337 11.6403 9.75905 10.2693C11.1582 8.88528 13.0421 8.3696 14.9618 8.27464H25.2374C27.1574 8.3696 29.041 8.88504 30.4402 10.2693C31.8259 11.6403 32.3602 13.5154 32.4562 15.4168L32.4562 25.5832Z" fill="white"/>
<path d="M25.1072 10.5915C22.6043 10.5229 17.5947 10.5229 15.0918 10.5915C13.7893 10.6273 12.3128 10.9515 11.3848 11.9427C10.4205 12.973 10.0561 14.2178 10.0191 15.6104C9.95415 18.0546 10.0191 25.3906 10.0191 25.3906C10.0614 26.783 10.4205 28.0279 11.3848 29.0582C12.3128 30.0498 13.7893 30.3737 15.0918 30.4094C17.5947 30.4781 22.6043 30.4781 25.1072 30.4094C26.4097 30.3737 27.8862 30.0494 28.8142 29.0582C29.7785 28.0279 30.1429 26.7831 30.1799 25.3906V15.6104C30.1429 14.2178 29.7785 12.973 28.8142 11.9427C27.8859 10.9512 26.4093 10.6273 25.1072 10.5915ZM20.0992 27.0105C18.8116 27.0105 17.553 26.6287 16.4824 25.9133C15.4119 25.198 14.5775 24.1813 14.0847 22.9917C13.592 21.8022 13.4631 20.4933 13.7143 19.2304C13.9655 17.9676 14.5855 16.8077 15.4959 15.8972C16.4064 14.9868 17.5663 14.3668 18.8291 14.1156C20.092 13.8644 21.4009 13.9933 22.5905 14.486C23.78 14.9787 24.7967 15.8132 25.5121 16.8837C26.2274 17.9543 26.6092 19.2129 26.6092 20.5005C26.6092 22.227 25.9233 23.8829 24.7025 25.1037C23.4816 26.3246 21.8257 27.0105 20.0992 27.0105ZM26.6369 15.3342C26.3794 15.3342 26.1277 15.2578 25.9136 15.1147C25.6995 14.9716 25.5327 14.7682 25.4342 14.5303C25.3357 14.2924 25.31 14.0306 25.3602 13.778C25.4105 13.5255 25.5345 13.2935 25.7166 13.1115C25.8987 12.9294 26.1307 12.8054 26.3833 12.7552C26.6359 12.705 26.8976 12.7308 27.1355 12.8294C27.3734 12.9279 27.5767 13.0948 27.7198 13.3089C27.8628 13.523 27.9392 13.7747 27.9392 14.0322C27.9392 14.2032 27.9055 14.3726 27.84 14.5306C27.7746 14.6886 27.6787 14.8321 27.5577 14.953C27.4368 15.0739 27.2932 15.1698 27.1352 15.2352C26.9772 15.3006 26.8079 15.3343 26.6369 15.3342Z" fill="white"/>
</svg>
