<svg width="41" height="41" viewBox="0 0 41 41" fill="none" xmlns="http://www.w3.org/2000/svg">
<path d="M20.0996 0.5C9.05378 0.5 0.0996094 9.45417 0.0996094 20.5C0.0996094 31.5458 9.05378 40.5 20.0996 40.5C31.1454 40.5 40.0996 31.5458 40.0996 20.5C40.0996 9.45417 31.1454 0.5 20.0996 0.5ZM28.235 16.8833C28.2434 17.0542 28.2454 17.225 28.2454 17.3917C28.2454 22.6 24.285 28.6021 17.0392 28.6021C14.8981 28.6056 12.8016 27.9907 11.0017 26.8312C11.3079 26.8687 11.6225 26.8833 11.9413 26.8833C13.7871 26.8833 15.485 26.2563 16.8329 25.1979C16.0115 25.1818 15.2156 24.9098 14.5561 24.4198C13.8966 23.9299 13.4064 23.2464 13.1538 22.4646C13.7437 22.5768 14.3514 22.5532 14.9309 22.3958C14.0393 22.2155 13.2375 21.7325 12.6615 21.0285C12.0855 20.3245 11.7707 19.4429 11.7704 18.5333V18.4854C12.3017 18.7792 12.91 18.9583 13.5559 18.9792C12.72 18.4228 12.1283 17.5681 11.9018 16.5899C11.6752 15.6117 11.831 14.5839 12.3371 13.7167C13.3266 14.9333 14.5606 15.9286 15.9591 16.6381C17.3577 17.3477 18.8897 17.7555 20.4559 17.8354C20.2567 16.9902 20.3424 16.1029 20.6996 15.3115C21.0568 14.52 21.6655 13.8687 22.431 13.4589C23.1965 13.049 24.076 12.9036 24.9327 13.0451C25.7894 13.1867 26.5754 13.6073 27.1684 14.2417C28.05 14.0672 28.8954 13.7439 29.6684 13.2854C29.3745 14.1982 28.7593 14.9733 27.9371 15.4667C28.718 15.3726 29.4806 15.1627 30.1996 14.8437C29.6715 15.6352 29.0061 16.3259 28.235 16.8833Z" fill="white"/>
</svg>
