<svg width="176" height="60" viewBox="0 0 176 60" fill="none" xmlns="http://www.w3.org/2000/svg">
<path d="M75.636 32.2445C76.8059 32.2673 77.9601 32.518 79.034 32.9826C80.1094 33.4504 81.0866 34.1176 81.9139 34.9489C81.9834 35.0233 82.037 35.111 82.0715 35.2068C82.106 35.3026 82.1206 35.4044 82.1144 35.506C82.1121 35.7219 82.0262 35.9285 81.8749 36.0825C81.8018 36.1618 81.7134 36.2254 81.615 36.2696C81.5167 36.3137 81.4103 36.3374 81.3025 36.3392C81.1947 36.341 81.0877 36.3209 80.9878 36.2802C80.888 36.2394 80.7975 36.1788 80.7218 36.102C80.0455 35.4211 79.2508 34.8689 78.3767 34.4727C77.5024 34.0747 76.5521 33.8713 75.5915 33.8766C74.5967 33.8695 73.611 34.0657 72.6948 34.4532C71.8171 34.8217 71.0146 35.3485 70.3274 36.0073C69.6382 36.6778 69.0913 37.4805 68.7194 38.3673C68.3476 39.254 68.1584 40.2067 68.1633 41.1683V49.2955C68.1659 49.4069 68.1455 49.5175 68.1033 49.6206C68.0612 49.7236 67.9981 49.8168 67.9182 49.8944C67.8379 49.9733 67.7425 50.0353 67.6377 50.0764C67.5329 50.1176 67.4208 50.1371 67.3083 50.1339C67.09 50.1288 66.8825 50.0385 66.73 49.8824C66.5775 49.7262 66.4921 49.5166 66.4922 49.2983V33.08C66.4921 32.8618 66.5775 32.6522 66.73 32.496C66.8825 32.3399 67.09 32.2496 67.3083 32.2445C67.4208 32.2412 67.5329 32.2608 67.6377 32.302C67.7425 32.3431 67.8379 32.405 67.9182 32.484C67.9978 32.5612 68.0606 32.654 68.1028 32.7565C68.1449 32.8591 68.1656 32.9692 68.1633 33.08V36.0212C69.0126 34.82 70.1453 33.847 71.461 33.1887C72.7609 32.5553 74.1901 32.2321 75.636 32.2445Z" fill="white"/>
<path d="M86.0897 28.3129C86.2003 28.3094 86.3106 28.3287 86.4135 28.3694C86.5164 28.4102 86.61 28.4716 86.6882 28.5499C86.7665 28.6282 86.828 28.7217 86.8687 28.8246C86.9095 28.9276 86.9287 29.0378 86.9252 29.1485V29.3072C86.9283 29.4178 86.9088 29.5278 86.8679 29.6306C86.827 29.7333 86.7656 29.8267 86.6873 29.9049C86.6091 29.9831 86.5158 30.0445 86.413 30.0854C86.3103 30.1263 86.2002 30.1459 86.0897 30.1428C85.8738 30.1404 85.6671 30.0546 85.5131 29.9033C85.4293 29.8286 85.3628 29.7366 85.3181 29.6337C85.2733 29.5308 85.2515 29.4194 85.2541 29.3072V29.1485C85.2519 29.0363 85.2739 28.925 85.3186 28.8222C85.3633 28.7193 85.4296 28.6273 85.5131 28.5524C85.6671 28.4011 85.8738 28.3153 86.0897 28.3129ZM86.0897 32.2122C86.2019 32.2096 86.3133 32.2314 86.4162 32.2761C86.5191 32.3209 86.6111 32.3874 86.6857 32.4712C86.836 32.6257 86.9208 32.8322 86.9225 33.0478V49.305C86.9208 49.5205 86.836 49.7271 86.6857 49.8816C86.6111 49.9653 86.5191 50.0319 86.4162 50.0766C86.3133 50.1214 86.2019 50.1432 86.0897 50.1406C85.8722 50.128 85.6669 50.0359 85.5129 49.8818C85.3588 49.7278 85.2667 49.5225 85.2541 49.305V33.0422C85.2667 32.8247 85.3588 32.6194 85.5129 32.4654C85.6669 32.3113 85.8722 32.2192 86.0897 32.2066V32.2122Z" fill="white"/>
<path d="M101.102 48.5625C101.173 48.6323 101.228 48.7156 101.266 48.8076C101.303 48.8995 101.321 48.998 101.319 49.0972C101.328 49.3392 101.242 49.575 101.08 49.7545C101 49.8403 100.9 49.905 100.79 49.9429C100.679 49.9808 100.56 49.9907 100.445 49.9718L99.8488 49.9328H99.768L99.094 49.813H99.0132L98.3782 49.6153C98.3252 49.6153 98.2974 49.6153 98.2974 49.5763L97.6234 49.3368L97.5426 49.2978L96.9076 48.9803L96.8268 48.8995L96.2224 48.5068C96.1974 48.5068 96.1834 48.5068 96.1834 48.4873C96.1834 48.4678 96.1834 48.4678 96.1444 48.4678L95.5874 47.9525C95.5595 47.9525 95.5484 47.9525 95.5484 47.9302C95.5484 47.908 95.5345 47.9107 95.5066 47.9107L94.9914 47.3537L94.9106 47.2729L93.9469 45.9221L93.2116 44.329V44.2092L92.805 42.6996V42.5798L92.6852 41.0703V32.5642H91.1756C90.9597 32.5619 90.7531 32.476 90.5991 32.3247C90.5153 32.2501 90.4487 32.1581 90.404 32.0552C90.3593 31.9523 90.3375 31.8409 90.3401 31.7287C90.3405 31.6226 90.3639 31.518 90.4086 31.4218C90.4533 31.3257 90.5183 31.2403 90.5991 31.1716C90.7535 31.0213 90.9601 30.9365 91.1756 30.9349H92.6852V23.6209C92.6861 23.5134 92.7082 23.4071 92.7502 23.3082C92.7923 23.2093 92.8535 23.1196 92.9303 23.0444C92.9998 22.9646 93.0853 22.9003 93.1813 22.8556C93.2772 22.811 93.3815 22.7871 93.4873 22.7854C93.602 22.7827 93.7159 22.8045 93.8215 22.8491C93.9271 22.8938 94.0221 22.9603 94.1001 23.0444C94.2524 23.198 94.3393 23.4046 94.3424 23.6209V30.9349H98.1609C98.2712 30.9317 98.3809 30.9511 98.4834 30.9918C98.5858 31.0325 98.6789 31.0937 98.757 31.1716C98.8323 31.2434 98.8922 31.3299 98.9329 31.4257C98.9736 31.5215 98.9943 31.6246 98.9937 31.7287C98.9968 31.8392 98.9773 31.9493 98.9364 32.052C98.8955 32.1548 98.834 32.2481 98.7558 32.3263C98.6776 32.4046 98.5843 32.466 98.4815 32.5069C98.3787 32.5478 98.2687 32.5673 98.1581 32.5642H94.3535V40.9867L94.4733 42.3793L95.0693 44.4459L95.7851 45.716L96.1834 46.234L97.1777 47.1476L98.2918 47.8244L98.8489 48.0221L99.963 48.3007H100.545C100.755 48.3211 100.952 48.4136 101.102 48.5625Z" fill="white"/>
<path d="M112.563 32.0744C113.773 32.0676 114.97 32.3113 116.081 32.7902C118.246 33.7036 119.968 35.4267 120.88 37.5919C121.36 38.702 121.604 39.9 121.596 41.1096C121.594 41.3251 121.509 41.5317 121.359 41.6861C121.284 41.7696 121.192 41.836 121.089 41.8807C120.986 41.9254 120.875 41.9474 120.763 41.9451H105.249C105.346 42.8461 105.609 43.7214 106.023 44.527C106.424 45.3116 106.971 46.0128 107.633 46.5937C108.299 47.1792 109.058 47.6498 109.878 47.9863C110.73 48.3338 111.643 48.5089 112.563 48.5015C113.967 48.5041 115.342 48.105 116.527 47.3514C117.711 46.5978 118.655 45.5212 119.248 44.2485C119.296 44.095 119.403 43.9669 119.546 43.892C119.672 43.8168 119.816 43.7755 119.963 43.7722C120.079 43.7657 120.194 43.7857 120.301 43.8306C120.408 43.8754 120.503 43.9441 120.579 44.0313C120.72 44.1905 120.798 44.3953 120.799 44.6078C120.806 44.7151 120.793 44.8229 120.76 44.9253C120.021 46.4821 118.856 47.7981 117.401 48.7216C116.17 49.5087 114.766 49.9835 113.309 50.1048C111.853 50.2262 110.39 49.9904 109.045 49.4179C106.887 48.5035 105.169 46.7856 104.255 44.6273C103.782 43.5147 103.539 42.3183 103.539 41.1096C103.539 39.9008 103.782 38.7045 104.255 37.5919C105.167 35.4321 106.886 33.7134 109.045 32.8013C110.155 32.318 111.353 32.0705 112.563 32.0744ZM112.563 33.7037C111.643 33.6981 110.73 33.8751 109.878 34.2245C109.058 34.5614 108.299 35.032 107.633 35.6171C106.967 36.2061 106.42 36.9183 106.023 37.7144C105.614 38.5223 105.352 39.3965 105.249 40.2963H119.877C119.772 39.3967 119.509 38.5226 119.1 37.7144C118.703 36.9183 118.157 36.2061 117.49 35.6171C116.824 35.0314 116.066 34.5607 115.245 34.2245C114.394 33.8793 113.482 33.7061 112.563 33.7148V33.7037Z" fill="white"/>
<path d="M141.488 32.2444C141.602 32.2418 141.715 32.2635 141.821 32.3082C141.926 32.3529 142.02 32.4194 142.098 32.5034C142.251 32.6565 142.339 32.8632 142.343 33.0799V50.4903C142.348 51.6572 142.117 52.8131 141.663 53.8882C141.221 54.9486 140.579 55.9141 139.772 56.7319C138.952 57.5582 137.986 58.2249 136.923 58.6983C135.807 59.1939 134.598 59.4447 133.377 59.4336C131.682 59.4375 130.021 58.9569 128.59 58.0485C127.159 57.14 126.018 55.8416 125.3 54.306C125.24 54.1971 125.213 54.0734 125.222 53.9495C125.221 53.8451 125.242 53.7417 125.283 53.6458C125.324 53.5499 125.385 53.4636 125.462 53.3925C125.539 53.3142 125.631 53.2526 125.733 53.2115C125.835 53.1703 125.945 53.1503 126.055 53.1529C126.204 53.1483 126.351 53.1872 126.478 53.2649C126.605 53.3425 126.707 53.4556 126.771 53.5902C127.361 54.8426 128.291 55.9041 129.456 56.6539C130.455 57.2977 131.599 57.6852 132.784 57.7824C133.969 57.8795 135.16 57.6833 136.251 57.211C137.122 56.8263 137.911 56.28 138.577 55.6011C139.228 54.9184 139.744 54.1178 140.095 53.2421C140.463 52.3675 140.653 51.428 140.652 50.4791V46.357C139.84 47.5139 138.764 48.4609 137.513 49.1199C136.338 49.7277 135.045 50.071 133.723 50.1259C132.401 50.1807 131.083 49.9458 129.862 49.4375C127.72 48.5166 126.012 46.8089 125.091 44.6664C124.622 43.567 124.385 42.3828 124.395 41.1877V33.0799C124.397 32.864 124.483 32.6574 124.634 32.5034C124.709 32.4196 124.801 32.353 124.904 32.3083C125.007 32.2636 125.118 32.2418 125.23 32.2444C125.448 32.257 125.653 32.3491 125.807 32.5031C125.961 32.6572 126.053 32.8624 126.066 33.0799V41.1877C126.06 42.1652 126.256 43.1334 126.642 44.0314C127.011 44.8956 127.536 45.6842 128.191 46.357C128.849 47.0265 129.633 47.5594 130.497 47.9251C131.397 48.3056 132.363 48.5016 133.34 48.5016C134.316 48.5016 135.283 48.3056 136.182 47.9251C137.05 47.5562 137.84 47.0239 138.507 46.357C139.173 45.6879 139.705 44.8988 140.076 44.0314C140.462 43.1334 140.658 42.1652 140.652 41.1877V33.0799C140.656 32.8632 140.744 32.6565 140.897 32.5034C140.971 32.4196 141.062 32.353 141.164 32.3082C141.266 32.2634 141.376 32.2416 141.488 32.2444Z" fill="white"/>
<path d="M146.447 50.1345C146.332 50.1372 146.218 50.1154 146.113 50.0708C146.007 50.0261 145.912 49.9596 145.834 49.8755C145.682 49.7219 145.595 49.5153 145.592 49.299V31.8496L145.712 30.3373V30.2203L146.107 28.7079C146.106 28.6862 146.109 28.6643 146.116 28.6438C146.123 28.6232 146.134 28.6043 146.149 28.5881L146.427 27.8751L147.263 26.3238L147.82 25.647C147.822 25.6169 147.836 25.589 147.859 25.569L148.377 25.0119C148.402 25.0119 148.416 25.0119 148.416 24.9924C148.416 24.9729 148.416 24.9729 148.458 24.9729L149.015 24.4549C149.03 24.4543 149.045 24.4506 149.059 24.4439C149.073 24.4372 149.086 24.4276 149.096 24.4159L149.731 24.0176L149.811 23.9396L150.446 23.6221L150.524 23.5803L151.162 23.3018H151.237L151.875 23.1041H151.995L152.63 22.9843H152.708L153.346 22.9453C153.558 22.9454 153.763 23.0226 153.922 23.1626C154.093 23.3085 154.2 23.5154 154.22 23.7391C154.219 23.9546 154.134 24.1612 153.984 24.3156C153.841 24.4801 153.643 24.5862 153.427 24.6137H152.833L152.276 24.7334L151.162 25.0927L150.605 25.4102L149.577 26.204L148.628 27.2791L148.271 27.8751L147.714 29.1452L147.358 30.5378L147.238 31.9304V33.401H153.365C153.575 33.4063 153.774 33.4921 153.922 33.6405C154.006 33.7152 154.073 33.8071 154.117 33.91C154.162 34.013 154.184 34.1244 154.181 34.2365C154.181 34.3426 154.158 34.4473 154.113 34.5434C154.068 34.6396 154.003 34.7249 153.922 34.7936C153.774 34.9412 153.575 35.026 153.365 35.0303H147.238V49.3017C147.235 49.518 147.148 49.7247 146.996 49.8783C146.926 49.956 146.842 50.0189 146.748 50.0629C146.653 50.107 146.551 50.1313 146.447 50.1345Z" fill="white"/>
<path d="M174.268 32.2444C174.382 32.2415 174.496 32.2631 174.601 32.3077C174.706 32.3524 174.801 32.4191 174.878 32.5034C174.955 32.5786 175.016 32.6683 175.058 32.7672C175.1 32.8662 175.122 32.9725 175.123 33.08V50.4903C175.128 51.6569 174.898 52.8126 174.446 53.8883C174.003 54.9481 173.361 55.9134 172.555 56.732C171.735 57.5588 170.767 58.2257 169.703 58.6983C168.587 59.1942 167.378 59.445 166.157 59.4336C164.462 59.4385 162.801 58.9584 161.37 58.0498C159.939 57.1413 158.797 55.8422 158.08 54.306C158.019 54.1975 157.991 54.0737 158 53.9495C157.999 53.8452 158.02 53.7419 158.061 53.6461C158.103 53.5503 158.163 53.4639 158.239 53.3925C158.317 53.3139 158.41 53.2521 158.512 53.2109C158.615 53.1697 158.725 53.15 158.835 53.153C158.984 53.1487 159.131 53.1877 159.258 53.2654C159.385 53.343 159.487 53.4559 159.551 53.5902C160.141 54.8419 161.07 55.9032 162.233 56.654C163.233 57.2982 164.377 57.686 165.563 57.7832C166.748 57.8803 167.94 57.6838 169.032 57.211C169.901 56.826 170.689 56.2798 171.355 55.6012C172.017 54.9262 172.544 54.13 172.906 53.256C173.274 52.3814 173.463 51.442 173.463 50.4931V46.3571C172.65 47.5143 171.573 48.4613 170.321 49.12C169.144 49.7298 167.848 50.0743 166.524 50.1292C165.2 50.184 163.88 49.9479 162.656 49.4375C160.515 48.5156 158.809 46.8081 157.888 44.6664C157.418 43.5676 157.181 42.383 157.192 41.1877V33.08C157.194 32.8641 157.28 32.6574 157.431 32.5034C157.506 32.4196 157.598 32.3531 157.701 32.3084C157.804 32.2636 157.915 32.2418 158.027 32.2444C158.245 32.2558 158.451 32.3475 158.606 32.5018C158.76 32.6561 158.852 32.8621 158.863 33.08V41.1877C158.857 42.1652 159.053 43.1335 159.439 44.0314C159.809 44.8958 160.335 45.6843 160.991 46.3571C161.649 47.0266 162.432 47.5595 163.297 47.9251C164.196 48.3055 165.162 48.5016 166.138 48.5016C167.114 48.5016 168.08 48.3055 168.979 47.9251C170.735 47.1797 172.133 45.7817 172.878 44.0258C173.264 43.1279 173.461 42.1597 173.455 41.1821V33.08C173.455 32.9725 173.478 32.8662 173.52 32.7672C173.562 32.6683 173.623 32.5786 173.7 32.5034C173.77 32.4222 173.858 32.3571 173.956 32.3124C174.054 32.2677 174.16 32.2445 174.268 32.2444Z" fill="white"/>
<path d="M70.8451 4.04159C70.856 4.60462 70.7448 5.16333 70.5192 5.67929L53.0922 46.257C52.7731 47.015 52.2373 47.662 51.5521 48.1168C50.8669 48.5716 50.0627 48.8141 49.2402 48.8138C48.3997 48.8277 47.5726 48.6016 46.8561 48.1621C46.1405 47.7104 45.5866 47.0434 45.2741 46.257L38.7539 31.0414L43.252 20.5161L49.2402 34.4728L62.9462 2.5153C63.2578 1.7552 63.788 1.10474 64.4697 0.64642C65.1264 0.216337 65.8963 -0.00859837 66.6812 0.000251449C67.2139 0.0101548 67.7408 0.11289 68.2381 0.303839C68.7573 0.498301 69.2312 0.796863 69.6307 1.18118C70.0124 1.54874 70.3164 1.98914 70.5248 2.4763C70.7288 2.97334 70.8375 3.50435 70.8451 4.04159Z" fill="white"/>
<path d="M43.2865 4.04159C43.2974 4.60462 43.1862 5.16333 42.9606 5.67929L25.5336 46.257C25.2145 47.015 24.6787 47.662 23.9935 48.1168C23.3083 48.5716 22.5041 48.8141 21.6816 48.8138C20.8411 48.8277 20.0141 48.6016 19.2975 48.1621C18.5819 47.7104 18.028 47.0434 17.7155 46.257L11.1953 31.0414L15.6934 20.5161L21.6816 34.4728L35.3737 2.5153C35.6852 1.7552 36.2155 1.10474 36.8972 0.64642C37.5539 0.216337 38.3237 -0.00859837 39.1087 0.000251449C39.6414 0.0101548 40.1682 0.11289 40.6656 0.303839C41.1848 0.498301 41.6587 0.796863 42.0582 1.18118C42.4399 1.54874 42.7439 1.98914 42.9523 2.4763C43.1611 2.97241 43.2745 3.50345 43.2865 4.04159Z" fill="white"/>
<path d="M70.8451 4.04159C70.856 4.60462 70.7448 5.16333 70.5192 5.67929L53.0922 46.257C52.7731 47.015 52.2373 47.662 51.5521 48.1168C50.8669 48.5716 50.0627 48.8141 49.2402 48.8138C48.3997 48.8277 47.5726 48.6016 46.8561 48.1621C46.1405 47.7104 45.5866 47.0434 45.2741 46.257L38.7539 31.0414L43.252 20.5161L49.2402 34.4728L62.9462 2.5153C63.2578 1.7552 63.788 1.10474 64.4697 0.64642C65.1264 0.216337 65.8963 -0.00859837 66.6812 0.000251449C67.2139 0.0101548 67.7408 0.11289 68.2381 0.303839C68.7573 0.498301 69.2312 0.796863 69.6307 1.18118C70.0124 1.54874 70.3164 1.98914 70.5248 2.4763C70.7288 2.97334 70.8375 3.50435 70.8451 4.04159Z" fill="white"/>
<path d="M43.2865 4.04159C43.2974 4.60462 43.1862 5.16333 42.9606 5.67929L25.5336 46.257C25.2145 47.015 24.6787 47.662 23.9935 48.1168C23.3083 48.5716 22.5041 48.8141 21.6816 48.8138C20.8411 48.8277 20.0141 48.6016 19.2975 48.1621C18.5819 47.7104 18.028 47.0434 17.7155 46.257L11.1953 31.0414L15.6934 20.5161L21.6816 34.4728L35.3737 2.5153C35.6852 1.7552 36.2155 1.10474 36.8972 0.64642C37.5539 0.216337 38.3237 -0.00859837 39.1087 0.000251449C39.6414 0.0101548 40.1682 0.11289 40.6656 0.303839C41.1848 0.498301 41.6587 0.796863 42.0582 1.18118C42.4399 1.54874 42.7439 1.98914 42.9523 2.4763C43.1611 2.97241 43.2745 3.50345 43.2865 4.04159Z" fill="white"/>
<path d="M8.20523 4.0473C8.20631 4.59563 8.09641 5.1385 7.88214 5.64323L4.10261 14.8066L0.420566 5.86048C0.418523 5.84943 0.418523 5.8381 0.420566 5.82705C0.145381 5.27404 0.00146166 4.665 0 4.0473C0.0278754 2.97736 0.472492 1.96061 1.2391 1.21371C2.00571 0.466813 3.0337 0.0488281 4.10401 0.0488281C5.17431 0.0488281 6.2023 0.466813 6.96891 1.21371C7.73552 1.96061 8.18014 2.97736 8.20801 4.0473H8.20523Z" fill="white"/>
</svg>
