<svg width="41" height="41" viewBox="0 0 41 41" fill="none" xmlns="http://www.w3.org/2000/svg">
<path d="M20.0996 0.5C9.05378 0.5 0.0996094 9.45417 0.0996094 20.5C0.0996094 31.5458 9.05378 40.5 20.0996 40.5C31.1454 40.5 40.0996 31.5458 40.0996 20.5C40.0996 9.45417 31.1454 0.5 20.0996 0.5ZM15.2038 28.7896H11.1538V15.7562H15.2038V28.7896ZM13.1538 14.1562C11.8746 14.1562 11.0475 13.25 11.0475 12.1292C11.0475 10.9854 11.8996 10.1062 13.2059 10.1062C14.5121 10.1062 15.3121 10.9854 15.3371 12.1292C15.3371 13.25 14.5121 14.1562 13.1538 14.1562ZM29.9954 28.7896H25.9454V21.5667C25.9454 19.8854 25.3579 18.7437 23.8934 18.7437C22.7746 18.7437 22.11 19.5167 21.8163 20.2604C21.7079 20.525 21.6809 20.9 21.6809 21.2729V28.7875H17.6288V19.9125C17.6288 18.2854 17.5767 16.925 17.5225 15.7542H21.0413L21.2267 17.5646H21.3079C21.8413 16.7146 23.1475 15.4604 25.3329 15.4604C27.9975 15.4604 29.9954 17.2458 29.9954 21.0833V28.7896Z" fill="white"/>
</svg>
