<svg width="297" height="400" viewBox="0 0 297 400" fill="none" xmlns="http://www.w3.org/2000/svg">
<path fill-rule="evenodd" clip-rule="evenodd" d="M237.701 353.151C203.625 358.329 168.932 358.589 134.573 356.709C120.976 355.69 107.336 355.507 93.7493 356.809C85.7208 357.406 50.5199 360.098 47.6438 352.904C49.4539 314.599 53.1201 275.968 64.3667 239.127C68.9919 226.046 72.9644 215.189 81.9916 204.365C84.8367 201.409 90.9723 195.21 94.4879 193.189C97.5338 191.438 98.8069 192.062 100.556 189.105C102.294 185.837 103.576 180.38 106.043 178.074C108.556 175.727 112.279 176.567 116.895 177.323C116.047 165.86 121.336 162.941 128.622 160.761C141.43 155.871 154.079 158.328 157.302 173.925C163.28 173.925 166.637 176.498 170.267 178.971C171.75 179.981 170.718 182.556 172.49 183.351C175.769 184.519 181.564 184.233 184.721 185.67C199.078 192.206 211.865 201.684 220.262 215.527C239.089 245.081 252.021 307.337 249.783 342.365C250.763 343.903 249.408 346.109 249.063 347.763C248.628 349.202 247.219 350.159 245.749 349.995C243.697 352.202 240.524 352.694 237.701 353.151Z" fill="white"/>
<path fill-rule="evenodd" clip-rule="evenodd" d="M96.6551 192.322C96.8643 192.205 96.6801 191.906 96.4699 192.005C86.3643 196.748 78.6118 205.068 73.1569 214.682C67.5085 224.637 64.2892 235.939 61.5137 246.986L61.4136 247.385C58.454 259.202 55.9376 271.142 53.672 283.111C51.3776 295.231 49.5359 307.426 48.0544 319.672C47.3215 325.727 46.6681 331.792 46.1585 337.87C45.9039 340.907 45.6726 343.947 45.4647 346.988C45.3816 348.204 45.3034 349.42 45.2363 350.637L45.1882 351.55C45.1467 352.378 45.0484 353.209 45.2529 354.026C45.4295 354.73 45.8022 355.368 46.1301 356.014C46.7785 357.292 48.556 357.082 49.2547 356.014L49.4576 355.703C49.921 354.987 50.306 354.321 50.4514 353.429C50.592 352.566 50.5972 351.661 50.6603 350.789C50.7764 349.185 50.8752 347.579 50.9879 345.974C51.2245 342.596 51.4902 339.219 51.7845 335.845C52.3663 329.185 52.9905 322.531 53.7571 315.888C55.1191 304.084 56.8283 292.311 58.8431 280.601C60.8118 269.161 63.3005 257.838 65.8968 246.528L66.1658 245.359C70.7117 225.613 77.7179 202.874 96.6551 192.322ZM204.294 269.64C204.22 269.443 203.9 269.397 203.846 269.64C203.165 272.706 203.098 275.864 202.994 279.004C202.891 282.1 202.895 285.211 202.941 288.309C203.107 299.697 203.419 311.075 203.69 322.461C203.825 328.156 203.951 333.852 204.049 339.548C204.086 341.684 204.116 343.821 204.142 345.957L204.174 348.775C204.189 350.021 204.222 351.251 204.374 352.496C204.474 353.314 204.687 354.095 205.139 354.797C205.46 355.295 205.917 355.547 206.362 355.886L206.445 355.95C207.013 356.399 207.612 356.403 208.174 355.95L208.338 355.821C208.875 355.401 209.339 355.072 209.683 354.407C210.16 353.483 210.236 352.479 210.317 351.46C210.441 349.915 210.359 348.348 210.343 346.799C210.311 343.691 210.268 340.584 210.214 337.477C210.014 326.082 209.618 314.685 208.898 303.31C208.558 297.952 208.098 292.577 207.48 287.241L207.363 286.241C207.175 284.671 207.004 283.073 206.812 281.47C209.685 279.448 212.211 276.995 214.365 274.212C214.524 274.007 214.263 273.72 214.071 273.918C211.87 276.198 209.347 278.015 206.553 279.444C206.095 276.088 205.466 272.751 204.294 269.64ZM156.289 168.065C156.249 168.035 156.188 168.021 156.15 168.065C155.532 168.786 155.658 169.887 155.638 170.8L155.635 170.885C155.591 172.219 155.583 173.55 155.587 174.885L155.601 179.136C155.603 179.721 155.65 180.329 155.62 180.917L155.605 181.144C155.28 181.477 155.129 181.957 155.24 182.44C155.259 183.059 155.583 183.575 156.055 183.9L155.043 185.335L154.031 186.769C151.945 189.729 149.836 192.663 147.637 195.542C145.396 198.477 143.005 201.302 140.502 204.017C139.28 205.345 138.036 206.653 136.764 207.932C136.247 208.452 135.717 208.959 135.193 209.472L134.672 209.987C134.364 210.296 133.976 210.6 133.772 210.991C133.651 211.221 133.624 211.789 133.581 211.883C133.195 212.732 133.854 214.085 134.948 213.662L134.898 213.629C134.699 213.49 134.827 213.488 135.282 213.623C135.568 213.622 135.837 213.556 136.089 213.425L136.164 213.384C136.518 213.204 136.833 212.856 137.121 212.577L137.192 212.509C137.85 211.893 138.477 211.239 139.107 210.595C140.422 209.251 141.708 207.878 142.952 206.469C145.435 203.657 147.789 200.73 150.019 197.713C152.289 194.64 154.4 191.41 156.215 188.046C156.904 186.77 157.535 185.469 158.141 184.153C159.319 183.774 159.593 182.521 159.511 181.108C159.945 180.095 160.337 179.061 160.569 178.005C160.6 177.86 160.414 177.724 160.303 177.85C159.926 178.279 159.577 178.735 159.242 179.203C159.039 178.213 158.783 177.301 158.663 176.72L158.14 174.156C161.084 174.002 164.31 175.212 166.339 177.33C166.448 177.882 166.873 178.277 167.287 178.792C167.759 179.382 168.171 180.043 168.479 180.735C169.161 182.268 168.776 184.528 170.1 185.652C170.238 185.77 170.392 185.851 170.551 185.901C169.923 188.982 170.208 192.377 170.222 195.503L170.222 195.778C170.219 199.276 170.336 202.777 170.471 206.273L170.608 209.732C170.786 214.346 170.902 218.962 170.454 223.55C168.408 221.737 166.292 220.007 164.103 218.358C162.664 217.274 161.196 216.229 159.702 215.223L158.488 214.411C157.032 213.435 155.542 212.43 153.948 211.731C151.865 210.817 149.883 211.131 147.871 212.069C145.867 213.003 143.923 214.087 141.958 215.1C139.959 216.129 137.956 217.149 135.954 218.172C134.628 218.85 132.685 219.462 131.712 220.71C131.65 220.434 131.578 220.158 131.493 219.884C131.59 219.466 131.553 219.014 131.318 218.583C128.05 212.576 125.026 206.425 122.024 200.282C120.504 197.173 119.059 194.027 117.536 190.92L116.056 187.894C115.809 187.39 115.56 186.886 115.311 186.383C114.938 185.63 114.549 184.884 114.171 184.133C114.011 183.816 113.811 183.5 113.656 183.18L113.582 183.019C113.579 183.011 113.22 181.883 113.497 181.99L113.521 182.002C113.662 182.082 113.776 181.904 113.684 181.79C113.292 181.306 112.747 181.735 112.523 182.184C111.907 183.418 113.036 185.356 113.47 186.538L113.494 186.604C114.841 190.418 116.366 194.161 117.929 197.891C120.926 205.042 124.145 212.084 127.357 219.137L127.395 219.259C126.71 218.733 125.978 218.257 125.352 217.793C123.772 216.622 122.146 215.509 120.523 214.399C117.546 212.365 114.488 210.464 111.38 208.639L110.758 208.274C109.205 207.37 107.667 206.636 105.824 206.907C104.112 207.16 102.52 208.08 100.973 208.827L100.813 208.904L96.0335 211.177C96.5445 209.139 97.0977 207.11 97.6749 205.09C98.8006 201.148 100.039 197.239 101.382 193.365C102.637 189.746 103.993 186.166 105.428 182.615L105.86 181.549C106.445 180.087 107.026 178.492 108.698 178.042C110.368 177.592 112.285 178.26 113.812 177.307C113.95 177.22 113.933 176.992 113.765 176.949L112.823 176.712C111.054 176.271 108.98 175.829 107.307 176.257C105.487 176.723 103.981 178.252 103.098 179.84C102.116 181.608 101.424 183.586 100.678 185.47L100.56 185.767C99.7049 187.9 98.8822 190.045 98.0951 192.205C96.5213 196.52 95.0885 200.888 93.7917 205.295C93.1668 207.419 92.5739 209.553 92.004 211.692C91.8403 212.308 91.57 213.054 91.3483 213.832C91.0943 214.08 90.8538 214.356 90.6282 214.672C90.2539 215.195 90.5226 215.809 90.9879 216.122C91.0059 216.658 91.1248 217.161 91.4091 217.593C92.5189 219.278 95.4529 218.844 95.3337 216.578C95.3157 216.231 95.1806 215.9 94.9761 215.621L94.9819 215.575L95.0051 215.492C95.5145 215.248 96.026 214.976 96.5651 214.709L101.581 212.23C103.034 211.512 104.644 210.402 106.26 210.128C107.766 209.873 109.355 210.996 110.649 211.673L110.733 211.716C113.862 213.321 116.967 214.978 120.06 216.649C121.57 217.465 123.061 218.315 124.565 219.14C125.823 219.831 127.18 220.822 128.594 221.211C129.197 221.681 129.915 221.618 130.491 221.263C130.228 222.895 130.244 224.57 130.163 226.238C130.054 228.469 130.038 230.706 130.002 232.94L129.987 233.777C129.892 238.716 129.841 243.655 129.823 248.595C129.756 266.183 129.95 283.777 129.995 301.365C130.018 310.202 130.193 319.047 130.423 327.881C130.52 331.624 130.724 335.363 130.943 339.1L131.064 341.139C131.32 345.44 131.471 349.789 132.267 354.032C132.371 354.586 133.307 354.6 133.399 354.032C134.132 349.485 134.173 344.839 134.313 340.238L134.343 339.319C134.512 334.38 134.593 329.443 134.576 324.501C134.513 306.906 134.056 289.321 133.682 271.731C133.494 262.893 133.367 254.051 133.075 245.215C132.929 240.795 132.764 236.377 132.567 231.957C132.48 229.984 132.396 228.013 132.265 226.043L132.205 225.199C132.165 224.648 132.132 224.104 132.092 223.565C133.872 224.215 135.499 223.011 137.1 222.188C138.945 221.238 140.789 220.287 142.635 219.339L144.483 218.393L148.18 216.506C149.844 215.656 151.127 214.811 152.902 215.807C159.298 219.397 165.176 224.174 170.502 229.186C171.524 230.147 173.682 229.889 173.941 228.278C175.046 221.396 174.374 214.414 173.81 207.511L173.602 204.948C173.35 201.887 173.075 198.826 172.709 195.778C172.546 194.414 172.383 193.051 172.203 191.69L172.064 190.67C171.838 189.056 171.691 187.453 171.211 185.906C171.362 185.856 171.508 185.776 171.639 185.652C173.083 184.282 172.387 181.903 171.728 180.272C171.077 178.662 170.084 177.257 168.842 176.048C168.571 175.784 168.188 175.614 167.805 175.605C164.791 173.608 161.486 172.612 158.045 173.702C157.948 173.24 157.85 172.778 157.746 172.318L157.64 171.858C157.373 170.716 157.273 168.829 156.289 168.065ZM125.406 348.422C124.47 348.165 123.447 348.436 122.762 349.122C122.077 349.807 121.805 350.831 122.063 351.766C122.192 352.227 122.425 352.627 122.762 352.966C123.076 353.279 123.444 353.502 123.863 353.636L123.961 353.665L124.114 353.729C124.582 353.855 125.051 353.855 125.52 353.729C125.968 353.603 126.357 353.376 126.687 353.049C127.015 352.718 127.241 352.329 127.367 351.881C127.493 351.412 127.493 350.943 127.367 350.474L127.303 350.321C127.174 349.861 126.942 349.461 126.605 349.122C126.266 348.785 125.866 348.551 125.406 348.422ZM69.8841 255.209C69.7305 255.033 69.4814 255.259 69.5768 255.447C71.0332 258.303 72.6566 261.139 74.2521 263.923C74.1243 264.694 73.9975 265.46 73.8517 266.206C73.2302 269.385 72.4688 272.508 71.9725 275.717C70.1885 287.255 69.2623 298.918 68.4675 310.56C67.6705 322.243 67.5685 333.932 67.4488 345.638C67.4383 346.652 68.2184 347.831 69.2638 348.023C69.7424 348.11 70.1006 348.093 70.5781 348.023C71.666 347.862 72.3465 346.616 72.3932 345.638C72.7051 339.095 73.1248 332.561 73.611 326.029C74.4727 314.448 74.9993 302.837 75.6955 291.244L75.9407 287.192C76.2038 282.802 76.4444 278.408 76.5228 274.011C76.575 271.099 76.4193 268.186 76.515 265.277C76.6034 262.59 76.8757 259.67 76.2836 257.03C76.2617 256.932 76.1055 256.906 76.0604 257.001C75.4448 258.297 75.0549 259.706 74.7544 261.145C73.1681 259.138 71.5526 257.126 69.8841 255.209ZM173.796 184.251C173.573 184.235 173.582 184.57 173.796 184.595C176.909 184.956 179.916 186.223 182.856 187.3L183.107 187.392C186.077 188.47 188.973 189.724 191.759 191.218C197.207 194.139 202.209 197.906 206.633 202.218C224.292 219.432 232.339 244.255 238.236 267.582C241.513 280.542 243.843 293.722 245.353 307.003C246.1 313.571 246.628 320.164 246.935 326.767C247.093 330.151 247.192 333.539 247.234 336.926C247.255 338.661 247.261 340.397 247.259 342.132C247.258 342.928 247.116 343.929 247.329 344.701C247.526 345.416 248.082 346.046 248.494 346.642C248.981 347.349 249.857 347.312 250.351 346.642L250.534 346.398C251.061 345.699 251.577 345.03 251.652 344.116C251.732 343.136 251.676 342.125 251.679 341.141C251.688 339.157 251.663 337.174 251.623 335.191C251.547 331.39 251.397 327.591 251.175 323.796C250.723 316.095 249.979 308.41 248.915 300.769C247.022 287.188 244.185 273.736 240.47 260.537C236.964 248.086 232.811 235.672 226.895 224.139C221.402 213.43 214.196 203.468 204.688 195.984C200.266 192.504 195.453 189.604 190.263 187.419C187.646 186.318 184.897 185.418 182.102 184.906C179.338 184.399 176.585 184.469 173.796 184.251ZM124.87 326.414C124.376 326.411 123.825 326.519 123.402 326.792L122.836 327.23C122.682 327.427 122.53 327.625 122.378 327.823C122.024 328.284 121.977 329.031 122.051 329.581C122.067 329.948 122.176 330.289 122.378 330.605L122.809 331.164C123.223 331.501 123.568 331.743 124.07 331.905C124.332 331.99 124.584 332.008 124.836 331.995L124.92 331.989L124.87 331.996L124.958 331.986C125.04 331.979 125.122 331.97 125.204 331.959C125.26 331.952 125.317 331.948 125.373 331.94C125.427 331.936 125.479 331.934 125.533 331.939C126.171 331.999 126.812 331.637 127.264 331.221C127.672 330.847 128.038 330.053 127.981 329.49L127.957 329.255C127.914 328.858 127.879 328.702 127.711 328.304C127.547 327.916 127.319 327.574 127.008 327.285C126.414 326.731 125.686 326.42 124.87 326.414ZM126.843 297.377C125.997 296.455 124.544 296.387 123.494 296.945C123.239 297.081 123.004 297.3 122.779 297.482C122.211 297.941 121.988 298.77 121.957 299.467C121.926 300.158 122.289 300.977 122.779 301.454L122.897 301.569C123.19 301.853 123.609 302.1 124.018 302.176C124.677 302.297 125.231 302.293 125.845 302.034C126.373 301.811 126.828 301.453 127.137 300.967L127.188 300.885C127.209 300.851 127.229 300.816 127.248 300.781L127.275 300.727C127.863 299.596 127.705 298.316 126.843 297.377ZM126.405 268.188C126.023 268.068 125.642 268.051 125.26 268.137C125.001 268.137 124.76 268.203 124.536 268.332C124.293 268.4 124.081 268.524 123.903 268.702C123.687 268.829 123.515 269.001 123.388 269.217C123.134 269.494 122.963 269.819 122.874 270.193L122.772 270.956L122.874 271.72L123.163 272.406C123.243 272.509 123.323 272.613 123.404 272.717C123.532 272.933 123.704 273.105 123.92 273.233C124.061 273.373 124.222 273.478 124.402 273.55C125.041 274.009 125.892 274.158 126.65 273.949C127.099 273.824 127.49 273.596 127.821 273.267C128.15 272.935 128.377 272.545 128.503 272.095L128.555 271.736C128.622 271.254 128.632 270.988 128.496 270.375C128.436 270.106 128.263 269.726 128.172 269.567C127.784 268.884 127.15 268.416 126.405 268.188ZM93.2715 247.188C92.1758 247.18 91.0801 247.182 89.9846 247.194L89.1629 247.205C87.7871 247.227 86.6087 247.085 85.5271 248.04C84.742 248.733 85.0878 249.896 85.833 250.418C86.9621 251.208 88.3784 250.811 89.6763 250.724C91.0451 250.632 92.4149 250.556 93.7853 250.494C96.4386 250.375 99.093 250.3 101.749 250.288C104.399 250.277 107.053 250.302 109.703 250.345C112.4 250.388 115.207 250.64 117.889 250.36C118.257 250.322 118.34 249.838 117.976 249.712C115.45 248.837 112.607 248.554 109.959 248.22C107.228 247.874 104.497 247.63 101.749 247.472C98.9261 247.31 96.099 247.208 93.2715 247.188ZM126.41 238.6L126.319 238.602C125.837 238.603 125.386 238.716 124.965 238.942L124.875 238.992L124.296 239.439C123.942 239.797 123.696 240.218 123.56 240.702L123.458 241.463C123.443 241.857 123.526 242.225 123.704 242.566C123.82 242.921 124.017 243.228 124.296 243.487C124.555 243.766 124.862 243.963 125.217 244.079C125.532 244.244 125.869 244.327 126.229 244.327L126.319 244.325C126.835 244.324 127.317 244.193 127.763 243.935L128.342 243.487C128.697 243.13 128.942 242.709 129.078 242.224L129.18 241.463C129.195 241.069 129.113 240.701 128.933 240.361C128.818 240.006 128.621 239.699 128.342 239.439C128.083 239.16 127.776 238.963 127.421 238.848C127.107 238.682 126.769 238.6 126.41 238.6ZM117.928 171.367C117.312 170.474 116.195 171.268 116.354 171.986C116.312 174.003 116.209 175.96 115.75 177.935C115.54 178.84 115.265 179.745 114.841 180.574L114.663 180.922C114.113 182.008 113.687 183.032 114.427 184.223C114.775 184.784 115.406 185.206 116.089 185.177C119.118 185.046 119.534 180.827 119.719 178.473C119.908 176.047 119.318 173.382 117.928 171.367Z" fill="black"/>
<path fill-rule="evenodd" clip-rule="evenodd" d="M181.542 73.688C180.19 72.2359 178.46 71.1541 176.569 70.8084C178.297 71.6723 179.987 72.5728 181.542 73.688ZM184.192 86.2083C184.431 85.1017 184.592 83.9844 184.642 82.8674C184.34 83.3271 183.857 83.6342 183.315 83.7929C183.665 84.5775 183.963 85.3858 184.192 86.2083ZM93.6806 103.558C95.2419 97.0566 102.526 84.5512 104.248 82.1442C106.117 76.1844 95.9209 71.4049 101.466 66.7445C103.977 64.6417 107.295 63.8975 110.408 63.1518C131.96 57.974 155.115 60.5853 175.104 70.1068C178.144 69.4667 181.312 70.7176 183.523 72.9146C193.91 83.359 179.754 102.204 176.659 113.978C171.348 127.107 182.288 129.316 181.115 140.424C180.203 146.163 174.393 147.68 169.489 148.547C168.704 148.731 167.653 148.759 167.4 149.59C166.605 154.44 163.882 159.063 160.225 162.201C160.545 163.148 160.301 164.299 159.173 165.131C148.957 172.726 136.076 176.527 123.334 175.843C108.149 175.029 100.297 166.323 98.4019 164.081C87.9248 149.926 89.1767 131.251 91.3139 114.382C92.8027 102.631 90.9148 115.075 93.6806 103.558Z" fill="white"/>
<path fill-rule="evenodd" clip-rule="evenodd" d="M140.499 49.4574C140.021 47.9649 138.67 47.0673 137.124 47.2526C135.754 47.4144 134.288 48.7738 134.455 50.2741C134.487 50.5638 134.528 50.8351 134.578 51.0908L134.571 51.0931L134.565 51.0934L134.599 51.1926C134.701 51.6701 134.841 52.098 135.05 52.5024C135.316 53.2774 135.572 54.0549 135.825 54.8351C135.46 54.8195 135.087 54.8403 134.708 54.9108C134.317 53.9088 133.923 52.9095 133.532 51.9049C133.112 50.8325 132.817 49.4548 131.988 48.6251C130.926 47.5657 129.085 47.3465 127.791 48.1032C126.425 48.9017 125.937 50.3211 126.234 51.8423C126.385 52.6182 126.904 53.1582 127.545 53.4975L127.614 53.5331L128.107 54.702C127.956 54.6368 127.799 54.5768 127.63 54.5272C127.364 54.4489 127.103 54.3994 126.847 54.3785C126.143 53.1026 125.368 51.8632 124.568 50.6473C123.647 49.2487 121.847 48.6538 120.337 49.5383C118.986 50.3289 118.261 52.4059 119.228 53.7705C119.964 54.8064 120.66 55.8632 121.346 56.9304C121.229 56.9512 121.112 56.9773 120.999 57.0112C120.947 56.9408 120.893 56.8703 120.835 56.7999C120.087 55.871 119.215 55.1743 118.321 54.402C117.484 53.6766 117.098 52.5364 115.997 51.9858C114.612 51.2943 112.943 51.6257 112.118 53.0034C110.35 55.9545 113.318 58.1097 115.217 59.8971C113.566 58.8664 111.847 57.9245 110.084 57.1104C109.093 56.6538 108.086 56.2128 107.064 55.8319C105.548 55.2683 104.322 55.4486 103.078 56.4972C102.523 56.9669 102.246 57.9926 102.502 58.676C102.997 59.9858 103.78 60.7816 105.152 61.16C106.117 61.4261 107.105 61.6062 108.07 61.8853C109.688 62.3498 111.258 62.916 112.781 63.6231C112.671 63.691 112.567 63.764 112.471 63.8475C111.333 63.4796 110.175 63.1613 109.012 62.8899C107.083 62.4374 105.119 62.1316 103.147 61.9403L102.492 61.8793C100.127 61.6523 97.2838 61.2334 95.8326 63.4979C95.3552 64.2441 95.3031 65.4757 95.8326 66.2141C96.8446 67.6336 97.8513 67.9154 99.5258 67.9414C97.8774 68.1163 96.2316 68.3328 94.5936 68.5859C93.4646 68.7581 92.3356 68.9534 91.2116 69.1699L90.65 69.28C89.2806 69.554 87.7522 69.7131 86.5759 70.5064C84.0094 72.2389 85.2144 75.6127 88.0574 75.9728C89.4319 76.145 90.9577 75.5631 92.3062 75.2917C93.6155 75.0282 94.9301 74.796 96.2499 74.5925C96.9332 74.4855 97.6166 74.3915 98.3026 74.3054C96.9071 74.5064 95.5222 74.7908 94.1737 75.1926L93.7991 75.3057C91.1922 76.1005 87.6734 77.3663 86.8602 80.1528C86.3672 81.8462 87.7157 83.3231 89.3485 83.4222C90.8665 83.5135 92.1315 82.6081 93.4199 81.9401C94.3589 81.4548 95.3135 81.0921 96.3255 80.7816C97.3714 80.4607 98.4382 80.1945 99.5128 79.978C98.6046 80.4785 97.7202 81.0286 96.8712 81.644L96.481 81.9324C94.2245 83.6144 90.7836 86.2184 91.5785 89.3713C91.8289 90.3655 92.9374 91.3152 94.0016 91.2135C96.7715 90.9551 98.2999 88.0041 100.389 86.4229C100.934 86.0106 101.532 85.6035 102.158 85.2069C98.9911 88.9852 96.4716 93.3531 94.5545 97.8645C90.3413 107.79 89.0488 116.981 89.0178 127.653L89.0172 127.983C89.012 133.87 89.145 139.863 89.7188 145.724C90.2509 151.138 91.2264 156.482 93.6807 161.385C97.7939 169.606 105.809 176.009 114.648 178.446C124.484 181.16 135.478 179.039 143.535 172.776C145.59 171.18 142.864 167.712 140.765 169.186C132.379 175.07 121.534 176.933 111.91 172.951C104.275 169.794 98.1278 163.002 95.5222 155.182C93.8637 150.207 93.3808 144.903 92.7892 139.718L92.7496 139.373C92.1236 133.951 91.7611 128.492 91.7663 123.033C91.7741 112.896 93.2295 104.552 97.687 95.357C99.784 91.0256 102.504 87.0206 105.754 83.5057C106.74 83.7066 107.789 83.4248 108.785 83.3178C109.294 83.263 109.802 83.2109 110.311 83.1639C109.791 83.5 109.282 83.8494 108.781 84.207L108.124 84.6809C106.068 86.1537 103.46 87.8312 103.989 90.6786C104.132 91.4483 104.899 92.1554 105.642 92.3302C108.336 92.9721 110.188 90.3524 112.009 88.7973C113.592 87.4457 115.248 86.235 116.936 85.0217C117.319 84.7477 117.705 84.4737 118.094 84.2024C117.729 84.6282 117.374 85.0607 117.027 85.4972L116.515 86.1467C114.965 88.0868 112.731 90.6085 114.111 93.1234C114.502 93.8332 115.337 94.3054 116.146 94.2898C118.926 94.2324 120.032 91.0752 121.336 89.0817C122.457 87.3726 123.676 85.7627 124.935 84.1528C125.282 83.7118 125.632 83.2709 125.986 82.8299C131.826 83.1326 137.645 83.9049 143.363 85.1391C147.291 85.9871 151.153 87.0859 154.987 88.2885L155.306 88.3899C157.381 89.0582 159.519 89.9136 161.015 91.3805C161.229 92.3911 161.065 93.4569 160.86 94.4662L160.701 95.2387C160.045 98.4692 159.598 101.64 159.933 104.956C160.28 108.377 161.31 111.454 162.567 114.632C163.162 116.129 163.777 115.858 163.989 117.465C164.15 118.69 164.05 119.953 163.94 121.188L163.847 122.234C163.615 124.976 163.499 127.965 165.295 130.227C165.574 130.574 166.172 130.436 166.37 130.089C166.448 129.951 166.532 129.818 166.623 129.69C167.489 128.435 168.816 127.72 170.334 127.443C170.527 127.409 170.452 127.151 170.29 127.13C169.007 126.979 167.791 127.3 166.758 127.962C167.248 126.268 171.04 127.092 172.287 127.421L172.33 127.433C173.884 127.85 175.355 128.529 176.652 129.489C179.26 131.42 180.767 134.431 180.692 137.674C180.616 140.863 178.97 143.808 176.143 145.335C174.779 146.071 173.227 146.425 171.683 146.41C170.071 146.394 168.636 145.687 167.022 145.786C166.088 145.844 165.374 146.846 165.913 147.72C166.273 148.304 166.743 148.763 167.285 149.116C165.963 152.166 164.275 155.075 162.33 157.76C161.252 159.25 160.032 160.625 158.689 161.88C157.64 162.861 155.368 163.996 155.496 165.632C155.54 166.222 155.846 166.582 156.383 166.801C158.053 167.484 160.085 165.132 161.202 163.998L161.292 163.908C162.684 162.519 163.955 160.985 165.061 159.357C167.022 156.466 168.24 153.207 168.743 149.784C171.422 150.59 174.969 149.833 177.155 148.844C184.025 145.739 186.271 136.484 182.095 130.321C181.286 129.129 180.274 128.108 179.122 127.284C179.375 127.146 179.612 126.968 179.823 126.744C180.992 125.502 181.818 123.881 182.638 122.388L182.737 122.209C183.465 120.894 184.151 119.558 184.795 118.202L185.034 117.692C186.472 114.6 187.731 113.249 188.756 109.998C189.742 106.861 190.52 103.665 191.023 100.414L191.157 99.5532C191.448 97.6667 191.723 95.6494 191.511 93.734C192.974 94.2115 194.445 94.5064 195.893 93.7888C196.847 93.3165 197.374 91.9388 197.048 90.9499C196.811 90.2219 196.414 89.6505 195.911 89.2017C196.211 89.0504 196.492 88.8573 196.74 88.6433L196.957 88.4557C197.833 87.6936 197.896 86.2454 197.364 85.2904C197.311 85.1991 197.259 85.1052 197.21 85.0139C196.704 84.1084 195.658 83.5161 194.625 83.5318C194.458 83.5344 194.291 83.5344 194.122 83.5318C194.604 83.4248 195.076 83.2604 195.525 82.9838C197.549 81.7392 197.293 78.3655 194.844 77.7705C193.816 77.5227 192.682 77.6244 191.55 77.8906C191.592 77.8671 191.633 77.8436 191.675 77.8175C192.531 77.293 193.248 76.2676 193.167 75.2161C193.078 74.0523 192.703 73.2226 191.675 72.612C190.783 72.085 189.521 72.0354 188.634 72.612C187.864 73.1156 187.111 73.6714 186.386 74.2689C187.113 73.3739 187.744 72.4007 188 71.3674C188.316 70.081 187.789 68.6799 186.631 68.0015C185.707 67.4613 184.732 67.5214 183.861 67.9388C183.908 67.263 183.743 66.5742 183.295 65.9636C182.377 64.7114 180.707 63.991 179.255 64.9043C179.064 65.0243 178.809 65.2304 178.561 65.4835C179.043 63.9467 178.608 62.3341 176.962 61.6401C175.958 61.2148 174.599 61.4287 173.728 62.1619C174.281 59.1691 169.865 56.9695 168.149 60.0615C167.759 60.7619 167.374 61.4995 167.029 62.254L166.902 62.5377L166.889 62.5324L166.977 62.325L167.066 62.1176C167.544 61.0086 168.151 59.8553 168.318 58.6525C168.563 56.873 167.77 55.1848 165.835 54.9238C164.836 54.7882 163.725 55.2422 163.055 56.0356C163.417 53.2748 160.334 51.2683 158.115 53.3296C157.064 54.3054 156.503 55.7327 155.835 56.9852C155.457 57.6923 155.071 58.3968 154.693 59.1065C154.596 58.9917 154.492 58.8769 154.382 58.7647C154.943 57.0843 155.379 55.3622 155.746 53.6296C156.096 51.9962 155.28 50.3002 153.595 49.8386C152.064 49.4157 150.147 50.3605 149.805 51.9913C149.565 53.1391 149.281 54.2744 148.968 55.4039C148.754 55.3518 148.543 55.3152 148.334 55.2891C148.316 55.0769 148.297 54.8635 148.275 54.6513L148.193 53.8965C148.01 52.172 147.826 50.2033 146.925 48.7373C145.389 46.2324 141.451 47.2709 141.409 50.2324C141.386 51.764 142.009 53.2826 142.225 54.7986C142.319 55.4587 142.374 56.1267 142.405 56.7947C141.985 54.5768 141.409 52.3876 140.741 50.2324C140.663 49.9741 140.58 49.7157 140.499 49.4574ZM174.479 134.984C171.023 134.449 167.864 136.377 165.817 139.078C165.444 139.571 165.689 140.268 166.026 140.683C166.268 140.988 166.594 141.024 166.962 141.071C167.384 141.126 167.919 140.784 168.104 140.416C169.422 137.786 171.772 136.124 174.479 135.101C174.528 135.083 174.544 134.994 174.479 134.984ZM169.688 87.8595L169.583 87.7471C168.884 87.0214 169.989 85.913 170.69 86.6402C171.428 87.4058 171.918 88.3357 172.39 89.2782C172.839 90.1768 171.49 90.9705 171.039 90.0685L170.833 89.6585C170.511 89.021 170.167 88.3912 169.688 87.8595ZM179.394 86.3701C178.402 86.2032 178.823 84.6942 179.81 84.8607C181.088 85.0762 182.362 85.3212 183.641 85.537C184.631 85.704 184.211 87.2129 183.224 87.0467C181.946 86.8309 180.672 86.5859 179.394 86.3701ZM120.351 76.0685C121.309 75.7489 121.72 77.2604 120.767 77.5782C119.451 78.0174 118.146 78.4675 116.898 79.0773C115.996 79.5177 115.202 78.1679 116.108 77.7254C117.478 77.0561 118.907 76.5507 120.351 76.0685ZM179.619 74.0396C180.554 73.6654 180.96 75.179 180.035 75.5493L176.655 76.9017C175.72 77.2758 175.314 75.7625 176.239 75.3922L179.619 74.0396ZM108.548 70.3637L108.671 70.2859C109.519 69.7364 110.304 71.0911 109.461 71.6377C108.966 71.9585 108.365 72.176 107.912 72.5581L107.817 72.6426C107.085 73.334 105.976 72.2292 106.71 71.5354C107.247 71.0283 107.927 70.746 108.548 70.3637Z" fill="black"/>
<path fill-rule="evenodd" clip-rule="evenodd" d="M111.883 158.03C113.551 158.043 115.425 157.418 116.678 156.928L117.005 156.798C118.089 156.364 119.203 155.865 120.034 155.027C120.3 154.755 120.583 154.447 120.727 154.124C120.811 153.934 120.846 153.737 120.764 153.542C120.464 153.513 120.179 153.474 119.909 153.425C119.781 153.402 119.658 153.377 119.564 153.377C119.216 153.374 118.872 153.419 118.529 153.462C118.479 153.468 118.429 153.475 118.379 153.481C118.112 153.514 117.846 153.55 117.58 153.585C116.807 153.689 116.038 153.792 115.254 153.83C114.688 153.857 114.094 153.825 113.495 153.793C111.942 153.708 110.336 153.593 109.139 154.681C108.826 154.966 108.695 155.325 108.695 155.691C108.695 156.135 108.882 156.588 109.167 156.943C109.813 157.746 110.807 158.021 111.883 158.03ZM102.793 144.013C103.518 145.101 104.727 145.801 106.382 145.725C109.673 145.575 113.6 144.333 116.356 142.537C117.074 142.069 117.54 141.322 117.623 140.521L117.772 139.096L118.574 140.282C118.658 140.406 118.742 140.529 118.826 140.653C119.059 140.992 119.291 141.332 119.51 141.68C120.351 143.017 121.121 144.366 121.821 145.782C122.317 146.784 122.679 147.906 123.042 149.037C123.656 150.947 124.248 152.825 125.559 154.167C125.757 154.37 126.061 154.443 126.34 154.407C126.586 154.375 126.827 154.255 126.945 154.015C128.511 150.829 126.405 146.991 124.696 144.322L124.515 144.044C122.931 141.632 120.344 138.441 117.381 138.007L117.042 138.548L116.549 138.219C115.742 137.681 114.678 137.706 113.745 138.127L112.813 138.548C111.078 139.327 109.366 140.046 107.489 140.44C107.352 140.468 107.215 140.495 107.079 140.52C106.95 140.543 106.82 140.565 106.69 140.586C106.718 140.458 106.748 140.33 106.778 140.203C106.81 140.069 106.842 139.934 106.876 139.799C106.912 139.661 106.95 139.523 106.987 139.385C107.138 138.838 107.308 138.295 107.509 137.763C108.267 135.765 109.478 133.895 110.655 132.113L110.794 131.903C110.963 131.647 111.148 131.381 111.339 131.105C112.257 129.782 113.276 128.347 113.348 126.905C112.129 126.982 111.109 127.74 110.211 128.399C108.979 129.304 107.837 130.339 106.801 131.462C104.791 133.643 102.988 136.43 102.197 139.312C101.744 140.962 101.943 142.737 102.793 144.013ZM134.944 127.574L134.944 127.516C134.94 125.852 133.971 122.053 131.577 122.053C130.081 122.053 129.173 124.638 129.016 127.304L129.01 127.412C128.941 129.069 129.396 132.691 131.577 132.691C133.782 132.691 134.921 129.261 134.944 127.574ZM99.6917 127.053L99.6914 126.994C99.6951 125.33 100.664 121.531 103.058 121.531C104.517 121.531 105.416 123.989 105.606 126.582L105.619 126.782C105.714 128.383 105.289 132.169 103.058 132.169C100.854 132.169 99.7144 128.739 99.6917 127.053ZM126.88 116.314C127.197 116.351 127.513 116.4 127.828 116.45C128.749 116.597 129.665 116.773 130.574 116.978C132.301 117.368 134.015 117.861 135.696 118.418C137.268 118.939 138.817 119.527 140.365 120.116C140.447 120.148 140.53 120.179 140.613 120.211C141.159 120.418 141.704 120.651 142.25 120.885C143.082 121.241 143.917 121.599 144.77 121.869C142.524 118.762 139.063 116.46 135.733 114.813C133.833 113.873 131.817 113.115 129.79 112.494L128.661 112.155C126.998 111.664 125.18 111.211 123.618 112.189C123 112.576 122.606 113.178 122.482 113.828C122.36 114.466 122.499 115.15 122.939 115.721C123.323 116.218 123.801 116.501 124.31 116.598C124.871 116.705 125.466 116.588 126.008 116.298C126.442 116.266 126.57 116.277 126.698 116.292L126.88 116.314ZM101.867 116.63C102.98 116.388 104.082 116.291 105.224 116.326C105.74 116.341 106.239 116.421 106.737 116.501C107.511 116.626 108.282 116.755 109.115 116.604C109.55 116.524 109.921 116.27 110.207 115.938C110.541 115.55 110.762 115.053 110.833 114.581C110.907 114.094 110.834 113.668 110.653 113.291C110.44 112.846 110.082 112.472 109.648 112.143C108.336 111.15 106.084 111.389 104.536 111.589C103.005 111.788 101.484 112.263 100.131 113.017C98.796 113.761 97.6358 114.764 96.7304 115.989C95.9673 117.022 95.6078 118.211 95.2366 119.421C96.9828 117.956 99.6551 117.11 101.867 116.63Z" fill="black"/>
<path fill-rule="evenodd" clip-rule="evenodd" d="M105.214 152.352C104.5 153.085 103.814 153.87 103.167 154.682C102.987 155.971 102.945 157.275 103.109 158.622C103.349 160.573 103.882 162.481 104.601 164.312C105.027 164.252 105.446 164.132 105.856 163.944C107.155 163.347 107.88 162.144 108.759 161.082C110.509 158.971 113.702 157.724 115.934 159.913C116.904 160.866 117.525 162.183 118.391 163.23C119.343 164.38 120.413 165.474 121.529 166.465C121.667 166.59 121.811 166.726 121.959 166.859C122.58 166.149 123.19 165.434 123.788 164.709C125.564 162.549 127.097 160.156 127.903 157.458C128.159 156.602 128.318 155.71 128.381 154.809C127.59 153.828 126.688 152.936 125.663 152.198C122.572 149.967 119.012 149.604 115.308 149.411C111.477 149.213 108.026 149.474 105.214 152.352ZM95.8664 162.702C96.0151 161.21 96.2446 159.657 96.5837 158.108C97.8226 152.357 100.506 146.624 105.887 143.997C108.433 142.752 111.325 142.314 114.069 142.914C118.884 141.111 124.231 142.95 128.021 146.248C132.491 150.139 134.554 156.245 135.248 161.964C135.731 165.943 135.913 171.26 134.784 174.147C133.655 177.034 126.483 184.754 116.245 184.808C101.662 184.885 98.1173 175.047 97.6869 174.186C95.8899 170.606 95.4725 166.653 95.8664 162.702Z" fill="black"/>
<path fill-rule="evenodd" clip-rule="evenodd" d="M90.4327 134.397C92.827 137.39 102.2 140.712 107.189 137.106C112.177 133.5 114.149 130.987 114.816 126.481C114.887 126 115.755 125.681 116.122 126.022C118.178 127.932 119.508 130.365 120.827 132.804C122.314 135.554 123.778 138.322 126.48 140.184C131.266 142.75 139.923 143.116 142.481 141.984C147.381 139.815 151.257 135.178 152.138 128.796C152.736 126.908 153.297 125.766 153.82 125.369C154.565 124.804 158.674 124.301 159.124 124.218C167.235 122.712 177.494 121.752 184.718 127.049C185.696 127.64 189.043 129.862 189.093 129.315C189.128 127.176 186.704 122.334 181.193 120.03C174.377 117.181 164.245 117.014 158.375 117.643C158.08 117.675 157.074 117.427 157.003 117.396C148.11 113.545 137.879 114.568 128.364 116.187C127 116.451 114.795 119.475 109.94 117.643C101.912 114.365 93.354 111.99 84.6855 112.924C84.6131 112.932 83.5187 119.577 84.3712 120.03C85.0496 120.391 86.2039 121.315 86.614 121.821C86.9806 122.273 87.2116 122.835 87.1912 123.614C87.0263 128.12 88.3115 131.746 90.4327 134.397ZM123.437 130.377C122.419 128.904 122.098 125.595 122.524 123.181C122.74 121.959 123.159 120.986 123.685 120.502C124.034 120.18 124.433 120.028 124.868 120.051C125.106 120.063 125.365 120.131 125.638 120.278C129.34 118.275 133.825 117.554 138.076 117.761C141.46 117.761 143.874 118.56 145.512 119.804C147.482 121.3 148.369 123.452 148.421 125.785C148.482 128.554 147.345 131.583 145.48 133.98C143.695 136.274 141.253 137.975 138.603 138.367C135.596 138.965 132.531 138.387 129.866 136.974C127.133 135.524 124.825 133.196 123.437 130.377ZM93.7608 131.939C92.0454 129.911 90.9048 127.273 90.7312 124.659C90.5732 122.28 91.2099 119.924 92.9704 117.977C94.5664 116.606 97.3867 116.584 100.353 117.347C104.19 118.334 108.158 120.539 109.481 121.963C109.793 122.127 110.082 122.411 110.334 123.022L110.336 123.239C110.737 125.089 110.499 126.965 109.806 128.696C109.053 130.576 107.761 132.283 106.186 133.586C104.094 135.31 101.91 135.838 99.8656 135.559C97.55 135.244 95.3968 133.873 93.7608 131.939Z" fill="white"/>
<path fill-rule="evenodd" clip-rule="evenodd" d="M110.214 116.912C102.086 113.592 93.3969 111.199 84.6003 112.147C83.8729 111.87 82.9699 112.103 82.6475 113.132C79.5142 122.681 86.5014 120.025 86.4076 123.595C85.6752 143.609 112.565 147.027 115.588 126.597L115.644 126.63C119.994 130.69 120.91 137.298 126.035 140.83C136.372 148.393 151.025 142.401 152.908 128.937L152.949 128.755C153.58 126.007 154.336 125.326 157.452 125.339L157.944 125.241C166.04 123.646 176.82 122.212 184.277 127.699C185.899 128.643 185.975 131.068 187.345 132.122C188.847 132.414 189.771 130.608 189.873 129.358C190.111 116.895 167.818 115.998 157.835 117.068C157.644 116.87 157.237 116.895 157.1 117.141C148.07 113.23 137.898 113.771 128.23 115.416C122.241 116.576 116.326 119.218 110.214 116.912ZM85.4096 114.448C90.2873 114.204 94.799 114.471 99.5867 115.643C102.11 116.252 104.046 117.022 106.462 117.949C121.526 124.625 123.264 112.757 157.032 117.409C156.595 119.281 156.515 121.135 156.492 122.893C149.597 122.615 151.22 129.202 148.637 133.828L148.557 133.967C144.793 140.717 135.909 143.865 128.743 139.388C122.764 135.902 122.181 127.061 116.228 123.552C111.068 123.349 113.13 130.316 110.321 133.179C106.369 138.455 97.9675 139.193 93.0114 134.23C90.6861 131.842 89.4503 128.81 89.382 125.553C89.2524 123.472 89.6092 121.357 88.0364 119.893C86.9339 118.773 84.9751 119.146 84.7503 117.453C84.6073 116.451 85.0236 115.365 85.4096 114.448ZM138.42 117.175C133.574 116.937 128.448 117.778 124.287 120.156C121.208 117.704 120.453 127.448 122.497 130.266C125.442 136.294 132.298 140.257 138.9 138.941C149.199 137.448 156.375 117.157 138.42 117.175ZM124.583 120.809L124.847 120.771C129.31 120.089 141.463 116.933 146.15 121.915C150.699 130.178 139.159 144.058 127.149 133.002C123.807 129.598 122.511 125.47 124.583 120.809ZM110.439 121.865C108.127 119.127 96.3471 113.582 92.2409 117.14C84.7467 125.542 96.6316 142.537 106.586 134.257C109.902 131.49 112.083 127.08 111.128 122.81L111.127 122.631C111.125 122.566 111.113 122.581 111.043 122.5C110.921 122.177 110.699 121.971 110.439 121.865ZM92.3455 126.958C89.8181 113.244 100.381 118.458 109.056 122.118C108.591 122.543 108.593 123.124 108.727 123.602C109.642 133.777 97.2793 139.543 92.3455 126.958ZM158.01 117.734C161.628 118.96 185.562 116.768 187.773 127.991C185.439 124.209 180.605 122.708 176.26 121.893C170.349 120.785 164.471 121.426 158.644 122.592L158.523 121.386C158.394 120.106 158.258 118.909 158.01 117.734Z" fill="black"/>
</svg>
