<svg width="152" height="181" viewBox="0 0 152 181" fill="none" xmlns="http://www.w3.org/2000/svg">
<path d="M168.962 51.9912C168.981 53.1432 168.753 54.2859 168.292 55.3419L132.641 138.345C131.99 139.898 130.894 141.223 129.492 142.155C128.09 143.086 126.443 143.582 124.76 143.579C123.039 143.606 121.347 143.141 119.881 142.239C118.417 141.314 117.284 139.948 116.644 138.339L103.309 107.217L112.51 85.6858L124.76 114.234L152.792 48.8751C153.432 47.3191 154.518 45.9876 155.914 45.0486C157.255 44.1615 158.83 43.6948 160.438 43.7083C161.531 43.7316 162.612 43.9424 163.634 44.3315C164.699 44.7284 165.671 45.3397 166.489 46.1275C167.274 46.8882 167.896 47.8001 168.319 48.808C168.732 49.8191 168.95 50.8991 168.962 51.9912Z" fill="white"/>
<path d="M112.584 51.9913C112.603 53.1433 112.374 54.286 111.914 55.342L76.2689 138.352C75.6139 139.908 74.5127 141.236 73.1043 142.167C71.6958 143.099 70.0432 143.592 68.3546 143.586C66.6362 143.612 64.9461 143.147 63.4827 142.246C62.0166 141.323 60.8828 139.956 60.2459 138.345L46.9102 107.231L56.1179 85.6993L68.3546 114.247L96.3664 48.8752C97.0066 47.3192 98.0932 45.9877 99.4893 45.0487C100.829 44.1597 102.405 43.6929 104.013 43.7084C105.106 43.7317 106.187 43.9425 107.209 44.3316C108.274 44.7285 109.245 45.3398 110.064 46.1276C110.849 46.8868 111.469 47.7992 111.887 48.8081C112.321 49.8147 112.558 50.8954 112.584 51.9913Z" fill="white"/>
<path d="M40.8252 52.0048C40.8252 53.1268 40.5972 54.2371 40.1551 55.2684L32.4284 73.9921L24.9094 55.7442C24.3375 54.5904 24.0415 53.3194 24.045 52.0316C24.045 49.8046 24.9296 47.6689 26.5043 46.0941C28.079 44.5194 30.2148 43.6348 32.4418 43.6348C34.6688 43.6348 36.8045 44.5194 38.3793 46.0941C39.954 47.6689 40.8386 49.8046 40.8386 52.0316L40.8252 52.0048Z" fill="white"/>
</svg>
